<svg width="57.787079" height="57.787109" viewBox="0 0 57.7871 57.7871" fill="none" xmlns="http://www.w3.org/2000/svg" xmlns:xlink="http://www.w3.org/1999/xlink">
	<desc>
			Created with Pixso.
	</desc>
	<defs/>
	<path id="Ellipse 3" d="M57.7193 30.4639C58.9781 45.9094 42.4787 56.9307 27.2782 57.7278C9.42548 58.6638 -1.44629 48.4836 0.155823 30.4639C3.8179 15.8372 13.202 3.90186 29.1092 0.508545C49.9373 -3.1189 55.316 13.2629 57.7193 30.4639Z" fill="#D5B19B" fill-opacity="1.000000" fill-rule="nonzero"/>
	<path id="Ellipse 3" d="M27.2782 57.7278C42.4787 56.9307 58.9781 45.9094 57.7193 30.4639C55.316 13.2629 49.9373 -3.1189 29.1092 0.508545C13.202 3.90186 3.8179 15.8372 0.155823 30.4639C-1.44629 48.4836 9.42548 58.6638 27.2782 57.7278ZM1.14502 30.6304Q4.83795 15.9583 14.246 8.40015Q20.5071 3.36987 29.2995 1.49048Q38.3512 -0.0812988 44.3429 3.48633Q47.3036 5.24927 49.5172 8.26709Q54.5662 15.1501 56.7249 30.5732Q56.9956 33.9502 56.1885 37.0459Q54.4928 43.5503 48.0389 48.814Q44.2593 51.8967 39.9559 53.7876Q34.0792 56.3696 27.2258 56.729Q15.5523 57.3413 8.7019 51.8911Q7.87775 51.2354 7.12338 50.4919Q5.9205 49.3066 4.95361 47.9526Q0.214386 41.3159 1.14502 30.6304Z" fill="#FFFFFF" fill-opacity="1.000000" fill-rule="evenodd"/>
	<path id="Vector 33" d="M34.6723 18.4917L24.2706 28.8933L34.6723 39.2949" stroke="#FFFFFF" stroke-opacity="1.000000" stroke-width="1.000000"/>
</svg>
