<svg width="58.005859" height="58.005859" viewBox="0 0 58.0059 58.0059" fill="none" xmlns="http://www.w3.org/2000/svg" xmlns:xlink="http://www.w3.org/1999/xlink">
	<desc>
			Created with Pixso.
	</desc>
	<defs/>
	<path id="Ellipse 3" d="M0.0681152 30.5791C-1.1955 46.0833 15.3663 57.1462 30.6245 57.9463C48.5447 58.886 59.4576 48.6672 57.8494 30.5791C54.1735 15.8972 44.7539 3.91675 28.7864 0.510498C7.87952 -3.13062 2.48047 13.313 0.0681152 30.5791Z" fill="#D5B19B" fill-opacity="1.000000" fill-rule="nonzero"/>
	<path id="Ellipse 3" d="M30.6245 57.9463C15.3663 57.1462 -1.1955 46.0833 0.0681152 30.5791C2.48047 13.313 7.87952 -3.13062 28.7864 0.510498C44.7539 3.91675 54.1735 15.8972 57.8494 30.5791C59.4576 48.6672 48.5447 58.886 30.6245 57.9463ZM56.8602 30.7456Q53.1531 16.0168 43.7086 8.42896Q37.4231 3.37915 28.5964 1.49243Q19.5091 -0.0854492 13.4937 3.49585Q10.5208 5.26587 8.29816 8.29614Q3.22955 15.2061 1.0625 30.6887Q0.790588 34.0793 1.60107 37.1875Q3.30359 43.7173 9.78265 49.0017Q13.577 52.0964 17.8972 53.9946Q23.7968 56.5869 30.6768 56.9475Q42.3954 57.562 49.2728 52.0911Q50.1005 51.4324 50.8582 50.6858Q52.0662 49.4954 53.037 48.1357Q57.7946 41.4727 56.8602 30.7456Z" fill="#FFFFFF" fill-opacity="1.000000" fill-rule="evenodd"/>
	<path id="Vector 33" d="M23.2022 18.562L33.6432 29.0032L23.2022 39.4441" stroke="#FFFFFF" stroke-opacity="1.000000" stroke-width="1.000000"/>
</svg>
